PathFileType	4	(X/Y/Z)	C:/Users/beibeiliu/ov580/test_trc/User2\sequence.37_training_dense_left.trc
DataRate	CameraRate	NumFrames	NumMarkers	Units	OrigDataRate	OrigDataStartFrame	OrigNumFrames
120	120	7	19	mm	120	188	500
Frame#	Time	ThumbCMC			ThumbMCP			ThumbIP			ThumbTip			IndexMCP			IndexPIP			IndexTip			MiddleMCP			MiddlePIP			MiddleTip			RingMCP			RingPIP			RingTip			PinkyMCP			PinkyPIP			PinkyTip			BackHand1			BackHand2			BackHand3	
		X0	Y0	Z0	X1	Y1	Z1	X2	Y2	Z2	X3	Y3	Z3	X4	Y4	Z4	X5	Y5	Z5	X6	Y6	Z6	X7	Y7	Z7	X8	Y8	Z8	X9	Y9	Z9	X10	Y10	Z10	X11	Y11	Z11	X12	Y12	Z12	X13	Y13	Z13	X14	Y14	Z14	X15	Y15	Z15	X16	Y16	Z16	X17	Y17	Z17	X18	Y18	Z18	
187	1.55833	-190.86	-36.1588	84.0217	-169.369	-24.8951	55.7121	-143.138	-25.8555	27.6455	-120.264	-40.9114	19.2832	-175.117	-88.8291	20.1214	-162.36	-89.3705	-6.16082	-133.635	-72.6844	-23.0684	-159.686	-105.363	24.2988	-133.451	-102.581	-1.42137	-111.229	-73.621	-6.65588	-138.205	-107.976	36.8366	-117.077	-99.5302	15.8512	-101.142	-70.3104	13.2208	-120.555	-108.857	64.1254	-100.802	-105.466	39.137	-88.3999	-81.9574	23.7461	-164.701	-96.8367	90.8778	-174.208	-90.8388	122.63	-194.565	-80.526	91.4528	
188	1.56667	-191.64	-36.59	82.5019	-169.398	-25.2172	51.961	-143.477	-28.365	26.2508	-119.162	-43.2518	20.4769	-174.164	-89.5171	21.2202	-159.65	-89.689	-6.01304	-131.283	-74.3856	-21.2482	-154.097	-105.92	30.4004	-131.741	-99.8693	-0.844967	-108.135	-65.2251	-6.09057	-132.6	-109.422	40.9254	-110.69	-100.167	18.2145	-99.0633	-66.2739	14.2792	-119.298	-107.941	62.3477	-98.8728	-105.683	41.9784	-84.7244	-83.9415	26.6633	-159.662	-101.818	94.1661	-174.998	-89.8851	126.2	-193.469	-82.1253	90.6988	
189	1.575	-190.318	-37.4419	81.5959	-167.803	-29.4284	54.5444	-143.833	-27.2557	26.8484	-118.244	-42.3552	16.6637	-174.738	-88.4825	22.4821	-156.393	-89.6278	-6.80865	-132.458	-74.3248	-21.8745	-152.644	-104.268	27.8886	-126.588	-97.7269	0.771223	-103.926	-63.4848	-1.16831	-133.011	-108	38.3164	-106.586	-98.0744	17.9624	-96.5094	-64.0921	13.8344	-117.447	-108.651	63.8757	-100.464	-103.599	40.8333	-85.3873	-81.1249	24.0027	-163.199	-98.4095	96.7587	-174.589	-90.909	126.676	-193.668	-78.5901	91.4925	
190	1.58333	-191.692	-35.7469	79.6176	-168.097	-27.5824	49.8695	-143.57	-29.5673	24.0871	-120.523	-42.2212	15.35	-171.538	-88.5937	23.3246	-152.158	-91.1036	-2.59002	-127.68	-73.0049	-21.0975	-149.605	-103.379	26.3062	-124.191	-91.3525	-1.43601	-102.822	-60.3351	2.09624	-128.602	-107.956	43.875	-109.6	-97.5926	18.1986	-93.6416	-64.7704	16.1235	-119.263	-104.97	67.4734	-99.0907	-103.22	39.7357	-84.5415	-80.4453	21.692	-156.566	-99.5479	93.7697	-170.597	-91.4079	122.881	-194.969	-77.4548	93.0514	
191	1.59167	-189.874	-38.4447	79.896	-171.664	-25.8748	52.6842	-147.391	-28.014	27.2475	-122.487	-42.9271	18.642	-169.839	-88.7871	21.4327	-151.709	-90.0622	-6.26749	-126.693	-74.5925	-19.1716	-148.309	-102.023	26.2398	-121.489	-92.3213	2.4518	-102.934	-54.5657	5.11222	-131.23	-106.327	38.123	-106.315	-96.0569	19.1945	-93.9971	-63.7213	17.5304	-119.879	-103.987	64.3997	-98.9186	-104.406	40.9334	-86.4479	-78.7915	23.1553	-158.265	-99.7043	94.4907	-171.579	-91.3376	121.98	-191.315	-79.1764	94.3732	
192	1.6	-193.342	-34.0799	80.0896	-172.314	-25.6194	49.8425	-146.91	-30.2568	26.3482	-120.994	-41.3117	14.8134	-170.422	-89.473	19.4133	-151.544	-90.7553	-2.43076	-128.358	-71.3333	-22.0012	-148.782	-100.599	28.5886	-120.773	-89.9445	4.2933	-103.55	-54.7754	6.38527	-128.237	-106.001	41.3799	-106.297	-95.641	18.9467	-97.6096	-60.2873	15.1285	-116.755	-104.77	68.5746	-97.1875	-104.689	43.0974	-82.9168	-82.4005	24.5209	-159.611	-96.1086	97.03	-175.828	-86.285	124.733	-193.232	-77.4676	92.8073	
193	1.60833	-196.017	-34.0546	81.7105	-172.633	-25.985	53.238	-146.913	-30.3354	25.7604	-124.195	-38.3978	14.2814	-170.257	-89.3786	18.721	-153.14	-88.3863	-5.57807	-126.333	-74.1437	-20.5867	-146.841	-99.7042	24.104	-121.29	-88.593	3.75947	-104.325	-52.4399	8.28882	-126.889	-105.579	41.0539	-107.335	-93.8399	18.8785	-95.7904	-63.9257	15.2587	-120.629	-101.275	67.8407	-97.0188	-103.369	43.0476	-82.3307	-78.9237	23.2763	-157.142	-97.1073	94.4287	-172.935	-90.5416	125.993	-194.596	-77.4725	91.0698	
